<?xml version="1.0" encoding="UTF-8"?>
<svg width="1024" height="1024" viewBox="0 0 1024 1024" xmlns="http://www.w3.org/2000/svg">
  <defs>
    <!-- Main gradient for background -->
    <linearGradient id="bgGradient" x1="0%" y1="0%" x2="100%" y2="100%">
      <stop offset="0%" style="stop-color:#4CAF50;stop-opacity:1" />
      <stop offset="100%" style="stop-color:#1B5E20;stop-opacity:1" />
    </linearGradient>
    
    <!-- Gradient for dollar sign -->
    <linearGradient id="dollarGradient" x1="0%" y1="0%" x2="100%" y2="100%">
      <stop offset="0%" style="stop-color:#FFFFFF;stop-opacity:0.95" />
      <stop offset="100%" style="stop-color:#E8F5E8;stop-opacity:1" />
    </linearGradient>
    
    <!-- Shadow filter -->
    <filter id="shadow" x="-20%" y="-20%" width="140%" height="140%">
      <feDropShadow dx="4" dy="8" stdDeviation="8" flood-opacity="0.3" flood-color="#000000"/>
    </filter>
  </defs>
  
  <!-- Background circle -->
  <circle cx="512" cy="512" r="480" fill="url(#bgGradient)" stroke="rgba(255,255,255,0.1)" stroke-width="4"/>
  
  <!-- Inner highlight circle -->
  <circle cx="512" cy="512" r="460" fill="none" stroke="rgba(255,255,255,0.15)" stroke-width="2"/>
  
  <!-- Dollar sign container circle -->
  <circle cx="512" cy="512" r="320" fill="rgba(255,255,255,0.08)" stroke="rgba(255,255,255,0.12)" stroke-width="3"/>
  
  <!-- Main Dollar Sign -->
  <g transform="translate(512, 512)" filter="url(#shadow)">
    <!-- Vertical lines of the dollar sign -->
    <rect x="-15" y="-280" width="30" height="560" rx="15" fill="url(#dollarGradient)"/>
    
    <!-- Top horizontal curve (S shape top) -->
    <path d="M -180,-150 Q -180,-220 -80,-220 L 80,-220 Q 180,-220 180,-150 Q 180,-80 80,-80 L -50,-80" 
          stroke="url(#dollarGradient)" stroke-width="60" fill="none" stroke-linecap="round"/>
    
    <!-- Middle connection -->
    <rect x="-50" y="-80" width="100" height="40" fill="url(#dollarGradient)" rx="20"/>
    
    <!-- Bottom horizontal curve (S shape bottom) -->
    <path d="M 50,80 Q 180,80 180,150 Q 180,220 80,220 L -80,220 Q -180,220 -180,150 Q -180,80 -80,80" 
          stroke="url(#dollarGradient)" stroke-width="60" fill="none" stroke-linecap="round"/>
  </g>
  
  <!-- Subtle accent dots -->
  <circle cx="256" cy="256" r="8" fill="rgba(255,255,255,0.3)"/>
  <circle cx="768" cy="256" r="6" fill="rgba(255,255,255,0.25)"/>
  <circle cx="256" cy="768" r="6" fill="rgba(255,255,255,0.25)"/>
  <circle cx="768" cy="768" r="8" fill="rgba(255,255,255,0.3)"/>
</svg>
